<?xml version="1.0" standalone="no"?>
<!DOCTYPE svg PUBLIC "-//W3C//DTD SVG 20010904//EN"
 "http://www.w3.org/TR/2001/REC-SVG-20010904/DTD/svg10.dtd">
<svg version="1.0" xmlns="http://www.w3.org/2000/svg"
 width="341.000000pt" height="341.000000pt" viewBox="0 0 341.000000 341.000000"
 preserveAspectRatio="xMidYMid meet">
<metadata>
Created by potrace 1.11, written by Peter Selinger 2001-2013
</metadata>
<g transform="translate(0.000000,341.000000) scale(0.100000,-0.100000)"
fill="#000000" stroke="none">
<path d="M220 3400 l-55 -5 0 -1692 0 -1693 382 0 383 0 0 715 c0 393 3 715 6
715 9 0 55 -38 54 -44 0 -6 38 -52 78 -92 12 -13 22 -26 22 -30 0 -3 11 -15
25 -26 14 -11 25 -26 25 -34 0 -8 5 -12 10 -9 5 3 10 3 10 -2 0 -4 14 -23 30
-42 17 -18 30 -38 30 -43 0 -5 5 -6 10 -3 6 3 10 2 10 -4 0 -6 13 -24 29 -40
16 -16 26 -32 23 -35 -3 -3 2 -6 11 -6 9 0 19 -5 23 -12 5 -7 2 -8 -7 -3 -8 4
5 -10 27 -33 23 -22 40 -43 38 -45 -2 -2 8 -15 23 -29 42 -38 83 -87 83 -99 0
-5 5 -7 10 -4 6 3 10 0 10 -7 0 -7 17 -28 37 -47 21 -18 31 -30 23 -25 -14 7
32 -45 108 -121 17 -18 32 -38 32 -44 0 -6 9 -15 20 -21 11 -6 18 -15 15 -21
-4 -5 1 -9 9 -9 9 0 16 -5 16 -12 0 -7 12 -23 27 -35 14 -13 23 -23 20 -23 -3
0 18 -25 48 -55 29 -30 50 -55 47 -55 -3 0 9 -14 27 -30 17 -17 31 -33 31 -36
0 -4 19 -25 42 -48 24 -22 41 -42 38 -43 -3 -2 25 -34 63 -73 37 -38 67 -74
67 -79 0 -7 183 -10 525 -11 350 0 525 3 525 10 0 5 -17 26 -37 45 -20 19 -33
35 -28 35 6 1 -1 7 -15 15 -14 8 -21 14 -17 15 5 0 -15 23 -43 50 -28 28 -48
50 -44 50 4 0 -5 11 -19 24 -14 13 -23 27 -20 30 4 3 -2 6 -12 6 -10 0 -16 3
-12 6 3 3 -14 25 -38 49 -24 24 -41 46 -37 49 3 3 -2 6 -11 6 -10 0 -16 4 -14
10 1 5 -14 24 -33 41 -19 17 -28 28 -20 24 8 -4 -5 11 -29 34 -24 22 -40 41
-35 41 5 1 -2 7 -16 15 -14 8 -20 15 -15 15 6 0 -10 19 -35 42 -25 22 -38 37
-30 33 8 -4 -2 8 -22 27 -21 19 -38 40 -38 46 0 6 -9 14 -20 17 -11 4 -18 10
-15 14 2 5 -8 19 -23 33 -36 33 -102 107 -102 114 0 3 -15 21 -34 39 -19 18
-32 36 -29 39 4 3 -1 6 -9 6 -9 0 -22 8 -29 17 -13 17 -12 17 6 4 11 -8 3 2
-17 21 -20 20 -34 39 -31 42 4 3 -1 6 -10 6 -9 0 -17 5 -17 11 0 6 -24 33 -52
62 -29 28 -46 47 -38 43 8 -4 3 4 -12 18 -16 14 -28 29 -28 35 0 5 -5 13 -12
17 -7 5 -9 2 -4 -7 4 -8 1 -6 -6 4 -7 10 -23 31 -35 45 -13 15 -23 31 -23 35
0 5 -4 5 -10 2 -6 -3 -10 -2 -10 4 0 6 -17 29 -37 51 -21 22 -54 59 -73 81
-19 23 -57 64 -85 92 -27 28 -39 43 -25 32 14 -10 4 2 -22 28 -27 26 -46 47
-43 47 3 0 0 6 -7 14 -7 8 -16 12 -20 9 -5 -2 -8 3 -8 12 0 8 -7 18 -15 21 -8
4 -12 10 -9 15 3 5 -1 9 -9 9 -38 0 -27 53 21 97 14 12 21 23 17 23 -5 0 9 16
31 36 21 20 32 33 24 29 -8 -4 3 9 25 30 22 20 34 34 26 30 -9 -5 -12 -4 -7 3
4 7 14 12 23 12 9 0 14 3 10 6 -3 3 4 16 16 28 36 37 77 89 77 99 0 4 5 5 10
2 6 -3 10 -2 10 4 0 6 12 23 28 39 15 16 36 42 47 57 11 16 37 45 57 66 20 20
35 39 32 41 -2 3 7 13 21 22 14 9 25 21 25 28 0 6 10 21 23 33 49 49 87 93 87
100 0 4 12 20 28 35 53 54 92 100 85 100 -3 0 10 15 30 33 20 18 37 36 37 41
0 5 8 15 18 22 9 7 17 18 17 26 1 7 6 12 13 10 7 -1 12 3 12 9 0 6 10 20 23
31 12 11 15 16 7 12 -8 -4 2 8 23 27 20 19 37 38 37 43 0 4 12 21 28 36 67 69
92 98 92 105 0 4 18 25 40 46 22 22 37 39 33 39 -5 0 0 5 10 11 9 5 17 17 17
25 0 8 4 12 10 9 5 -3 10 1 10 10 0 8 7 18 15 21 8 4 15 13 15 21 0 8 4 11 10
8 5 -3 10 -2 10 4 0 5 15 24 33 42 17 17 26 28 18 24 -9 -6 -12 -4 -7 3 4 7
14 12 22 12 8 0 13 4 12 9 -2 5 6 17 17 25 24 19 80 17 -474 17 l-433 0 -29
-27 c-16 -15 -26 -31 -24 -35 3 -4 -8 -17 -25 -29 -17 -12 -28 -25 -25 -30 3
-5 -1 -10 -7 -13 -7 -2 -21 9 -30 24 -26 42 -96 89 -132 89 -60 -1 -45 14
-325 -340 -89 -113 -167 -212 -174 -220 -7 -8 -28 -35 -47 -60 -19 -25 -39
-50 -45 -56 -5 -6 -22 -26 -36 -45 -15 -19 -82 -104 -150 -189 l-124 -155 -3
543 -2 542 -53 0 c-28 1 -176 2 -327 3 -151 1 -300 0 -330 -3z"/>
</g>
</svg>
