<svg width="1012" height="957" viewBox="0 0 1012 957" fill="none" xmlns="http://www.w3.org/2000/svg">
<path d="M273.404 64.354C170.01 106.201 85.5614 122.479 34.4325 238.946C0.859583 315.422 -8.67963 374.189 8.09683 458.365C33.9597 588.132 173.914 477.24 219.757 684.863C265.601 892.485 368.206 935.888 510.425 954.418C619.548 968.636 685.242 922.648 778.658 852.966C899.413 762.891 998.837 685.967 1010.8 514.99C1022.71 344.83 944.614 236.859 830.842 135.724C740.518 55.434 818.162 -54.2033 557.244 30.7333C296.326 115.67 379.023 21.6061 273.404 64.354Z" fill="url(#paint0_linear)" fill-opacity="0.08"/>
<defs>
<linearGradient id="paint0_linear" x1="506" y1="0" x2="506" y2="957" gradientUnits="userSpaceOnUse">
<stop offset="0.166667" stop-color="white"/>
<stop offset="1" stop-color="#F7B91C"/>
</linearGradient>
</defs>
</svg>
