<svg width="1863" height="3594" viewBox="0 0 1863 3594" fill="none" xmlns="http://www.w3.org/2000/svg">
<path d="M475.545 1821.76C226.618 1915.67 -52.5491 1848.61 -123.627 2159.65C-168.619 2356.53 -157.73 2532.32 -39.3069 2705.83C48.1458 2833.96 134.934 2864.27 260.004 2913.89C389.069 2965.09 464.626 2930.51 595.936 2952.07C750.323 2977.41 934.296 3299.21 1042.22 3403.02C1150.15 3506.83 1581.57 3647.99 1664.96 3376.62C1712.25 3222.73 1606.88 3105.14 1603.71 2932.78C1601.33 2803.43 1639.12 2737.9 1627.62 2607.78C1613.66 2449.82 1619.96 2319.16 1515.13 2212.7C1393.01 2088.67 1269.31 2318.62 1138.28 2211.08C1058 2145.19 1044.97 2064.11 985.182 1969.93C925.393 1875.76 915.417 1780.91 829.832 1720.88C694.686 1626.1 610.328 1770.91 475.545 1821.76Z" fill="url(#paint0_linear)"/>
<circle cx="428" cy="572" r="50" fill="#5FCAD6" fill-opacity="0.69"/>
<circle cx="1515.5" cy="348.5" r="36.5" fill="#F7B91C" fill-opacity="0.18"/>
<path d="M762.404 64.354C659.01 106.201 574.561 122.479 523.432 238.946C489.86 315.422 480.32 374.189 497.097 458.365C522.96 588.132 662.914 477.24 708.757 684.863C754.601 892.485 857.206 935.888 999.425 954.418C1108.55 968.636 1174.24 922.648 1267.66 852.966C1388.41 762.891 1487.84 685.967 1499.8 514.99C1511.71 344.83 1433.61 236.859 1319.84 135.724C1229.52 55.434 1307.16 -54.2033 1046.24 30.7333C785.326 115.67 868.023 21.6061 762.404 64.354Z" fill="url(#paint1_linear)" fill-opacity="0.08"/>
<circle cx="1326" cy="1274" r="395" fill="url(#paint2_linear)"/>
<defs>
<linearGradient id="paint0_linear" x1="536.951" y1="1742.18" x2="1078.89" y2="3645.53" gradientUnits="userSpaceOnUse">
<stop stop-color="#5FCAD6" stop-opacity="0.69"/>
<stop offset="1" stop-color="#C4C4C4" stop-opacity="0"/>
</linearGradient>
<linearGradient id="paint1_linear" x1="995" y1="0" x2="995" y2="957" gradientUnits="userSpaceOnUse">
<stop offset="0.166667" stop-color="white"/>
<stop offset="1" stop-color="#F7B91C"/>
</linearGradient>
<linearGradient id="paint2_linear" x1="1102" y1="947" x2="1606" y2="1654.5" gradientUnits="userSpaceOnUse">
<stop stop-color="white"/>
<stop offset="1" stop-color="#5FCAD6" stop-opacity="0.69"/>
</linearGradient>
</defs>
</svg>
