<svg width="533" height="434" viewBox="0 0 533 434" fill="none" xmlns="http://www.w3.org/2000/svg">
<ellipse cx="22.7002" cy="259.402" rx="22.7002" ry="22.675" fill="#5FCAD6" fill-opacity="0.69"/>
<ellipse cx="516.429" cy="158.045" rx="16.5711" ry="16.5528" fill="#F7B91C" fill-opacity="0.37"/>
<path d="M174.521 29.1846C127.579 48.1624 89.2396 55.5443 66.0269 108.362C50.7847 143.044 46.4538 169.695 54.0704 207.869C65.8122 266.718 129.352 216.429 150.165 310.586C170.978 404.743 217.561 424.426 282.129 432.829C331.671 439.277 361.497 418.421 403.908 386.821C458.731 345.971 503.87 311.087 509.302 233.548C514.708 156.38 479.252 107.416 427.599 61.551C386.592 25.1393 421.843 -24.5812 303.385 13.9376C184.927 52.4564 222.472 9.79836 174.521 29.1846Z" fill="url(#paint0_linear)" fill-opacity="0.08"/>
<defs>
<linearGradient id="paint0_linear" x1="280.12" y1="0" x2="280.12" y2="434" gradientUnits="userSpaceOnUse">
<stop offset="0.166667" stop-color="white"/>
<stop offset="1" stop-color="#F7B91C"/>
</linearGradient>
</defs>
</svg>
