<svg xmlns="http://www.w3.org/2000/svg" width="1068.0000219345093" height="1044.6666812896729"><rect id="backgroundrect" width="100%" height="100%" x="0" y="0" fill="none" stroke="none" style="" class=""/><g class="currentLayer" style=""><title>Layer 1</title><path fill="#ffffff" fill-opacity="1" stroke="none" stroke-opacity="1" stroke-width="1" stroke-dasharray="none" stroke-linejoin="miter" stroke-linecap="butt" stroke-dashoffset="" fill-rule="nonzero" opacity="1" marker-start="" marker-mid="" marker-end="" d="M250.66668701171875,594.8333435058594 C250.66668701171875,394.5570983886719 387.15838623046875,232.33334350585938 555.6666870117188,232.33334350585938 C724.1749877929688,232.33334350585938 860.6666870117188,394.5570983886719 860.6666870117188,594.8333435058594 C860.6666870117188,795.1095886230469 724.1749877929688,957.3333435058594 555.6666870117188,957.3333435058594 C387.15838623046875,957.3333435058594 250.66668701171875,795.1095886230469 250.66668701171875,594.8333435058594 z" id="svg_8" class=""/><path fill="#ffffff" style="color: rgb(0, 0, 0);" stroke-dashoffset="" fill-rule="nonzero" marker-start="" marker-mid="" marker-end="" id="svg_7" d="M33.30584716796875,523.5517883300781 L33.30584716796875,523.5517883300781 C33.30584716796875,246.03591918945312 258.2908935546875,21.0506591796875 535.8073120117188,21.0506591796875 L535.8073120117188,21.0506591796875 C669.0900268554688,21.0506591796875 796.8975219726562,73.9931640625 891.1315307617188,168.22775268554688 C985.3655395507812,262.4617614746094 1038.3080444335938,390.2691955566406 1038.3080444335938,523.5517883300781 L1038.3080444335938,523.5517883300781 C1038.3080444335938,801.0679626464844 813.3233032226562,1026.0534362792969 535.8073120117188,1026.0534362792969 L535.8073120117188,1026.0534362792969 C258.2908935546875,1026.0534362792969 33.30584716796875,801.0679626464844 33.30584716796875,523.5517883300781 zM284.55621337890625,523.5517883300781 L284.55621337890625,523.5517883300781 C284.55621337890625,662.3096618652344 397.04901123046875,774.8024597167969 535.8073120117188,774.8024597167969 C674.5650024414062,774.8024597167969 787.0579223632812,662.3096618652344 787.0579223632812,523.5517883300781 C787.0579223632812,384.7938537597656 674.5650024414062,272.3013000488281 535.8073120117188,272.3013000488281 L535.8073120117188,272.3013000488281 C397.04901123046875,272.3013000488281 284.55621337890625,384.7938537597656 284.55621337890625,523.5517883300781 z" class=""/><path d="m595.6323852539062,292.8055725097656 v30.98828125 h-104.5 v-30.98828125 c0,-28.8046875 23.4453125,-52.25 52.25,-52.25 c28.8046875,0 52.25,23.4453125 52.25,52.25 zm0,0 " fill="#ff9468" id="svg_1" class=""/><path d="m616.0894165039062,679.8484802246094 c0,40.09375 -32.6171875,72.70703125 -72.70703125,72.70703125 c-40.09375,0 -72.70703125,-32.61328125 -72.70703125,-72.70703125 c0,-3.917968988418579 0.3125,-7.847657203674316 0.9414060115814209,-11.695313453674316 h143.328125 c0.9726560115814209,4.789062976837158 1.1445319652557373,6.773437976837158 1.1445319652557373,11.695313453674316 zm0,0 " fill="#ff9468" id="svg_2" class=""/><path d="m595.6323852539062,323.7938537597656 h-52.25 v-83.23828125 c28.8046875,0 52.25,23.4453125 52.25,52.25 zm0,0 " fill="#ff712f" id="svg_3" class=""/><path d="m616.0894165039062,679.8484802246094 c0,40.09375 -32.6171875,72.70703125 -72.70703125,72.70703125 v-84.40234375 h71.5625 c0.9726560115814209,4.789062976837158 1.1445319652557373,6.773437976837158 1.1445319652557373,11.695313453674316 zm0,0 " fill="#ff712f" id="svg_4" class=""/><path d="m758.0816040039062,675.5281677246094 c-2.214843988418579,5.953125 -7.96875,9.945313453674316 -14.3125,9.945313453674316 h-200.38671875 l-200.38671875,-0.011718999594449997 c-6.347657203674316,0 -12.097657203674316,-4 -14.316407203674316,-9.94140625 c-2.222656011581421,-5.945312976837158 -0.4882810115814209,-12.738282203674316 4.300780773162842,-16.8984375 c31.203126907348633,-27.0546875 53.19140625,-58.08203125 67.234375,-94.8671875 c14.273436546325684,-37.40625 21.21875,-82.890625 21.21875,-139.05859375 c0,-66.65234375 54.234375,-121.34765625 120.89453125,-121.91015625 h1.0546870231628418 c31.5703125,0.04296899959445 61.609375,12.48046875 84.57421875,35.18359375 c23.6328125,23.36328125 37.2421875,55.71484375 37.33203125,88.76171875 c0.3320319950580597,108.94921875 26.79296875,178.31640625 88.4921875,231.91015625 c4.792967796325684,4.167967796325684 6.527344226837158,10.953124046325684 4.300780773162842,16.88671875 zm0,0 " fill="#ffb64c" id="svg_5" class=""/><path d="m758.0816040039062,675.5281677246094 c-2.214843988418579,5.953125 -7.96875,9.945313453674316 -14.3125,9.945313453674316 h-200.38671875 v-382.6875 c31.5703125,0.04296899959445 61.609375,12.48046875 84.57421875,35.18359375 c23.6328125,23.36328125 37.2421875,55.71484375 37.33203125,88.76171875 c0.3320319950580597,108.94921875 26.79296875,178.31640625 88.4921875,231.91015625 c4.792967796325684,4.167967796325684 6.527344226837158,10.953124046325684 4.300780773162842,16.88671875 zm0,0 " fill="#ff9f00" id="svg_6" class=""/></g></svg>